<?xml version="1.0" encoding="UTF-8"?>
<!DOCTYPE svg PUBLIC "-//W3C//DTD SVG 1.1//EN" "http://www.w3.org/Graphics/SVG/1.1/DTD/svg11.dtd">
<svg xmlns="http://www.w3.org/2000/svg" version="1.1" width="512px" height="512px" style="shape-rendering:geometricPrecision; text-rendering:geometricPrecision; image-rendering:optimizeQuality; fill-rule:evenodd; clip-rule:evenodd" xmlns:xlink="http://www.w3.org/1999/xlink">
<g><path style="opacity:1" fill="#07acb4" d="M 240.5,73.5 C 268.751,70.5804 294.751,76.747 318.5,92C 356.214,122.048 394.214,151.715 432.5,181C 449.465,194.429 458.965,211.929 461,233.5C 461.875,250.532 461.542,267.532 460,284.5C 457.632,297.567 452.298,309.234 444,319.5C 434.079,328.758 423.579,337.258 412.5,345C 404.031,348.454 395.698,348.121 387.5,344C 343.605,309.138 299.438,274.638 255,240.5C 248.742,245.38 242.575,250.38 236.5,255.5C 269.332,281.493 302.332,307.327 335.5,333C 340.578,336.737 344.078,341.57 346,347.5C 346.667,361.833 346.667,376.167 346,390.5C 344.941,393.618 343.608,396.618 342,399.5C 305.29,436.468 262.123,446.634 212.5,430C 204.847,426.508 197.513,422.508 190.5,418C 164.787,397.285 138.787,376.952 112.5,357C 110.637,354.636 108.971,352.136 107.5,349.5C 102.639,348.224 97.9724,346.39 93.5,344C 84.3333,335.5 75.1667,327 66,318.5C 57.0995,307.023 51.7662,294.023 50,279.5C 49.098,261.132 49.4313,242.799 51,224.5C 55.2213,206.894 64.388,192.394 78.5,181C 115.5,152 152.5,123 189.5,94C 205.004,83.2415 222.004,76.4081 240.5,73.5 Z"/></g>
<g><path style="opacity:1" fill="#fefefe" d="M 243.5,96.5 C 263.651,94.7635 282.651,98.5969 300.5,108C 340.786,138.618 380.786,169.618 420.5,201C 440.418,220.995 442.918,243.162 428,267.5C 420.086,275.418 411.586,282.585 402.5,289C 401.5,289.667 400.5,289.667 399.5,289C 353.167,252.667 306.833,216.333 260.5,180C 257.758,177.23 254.758,176.896 251.5,179C 204.833,215.667 158.167,252.333 111.5,289C 109.711,289.52 108.044,289.187 106.5,288C 95.709,280.876 86.5424,272.043 79,261.5C 69.0517,242.376 70.7183,224.376 84,207.5C 88.7187,202.278 93.8853,197.612 99.5,193.5C 135.014,166.242 170.348,138.742 205.5,111C 217.234,103.36 229.9,98.5268 243.5,96.5 Z"/></g>
<g><path style="opacity:1" fill="#fdfdfd" d="M 195.5,254.5 C 237.934,286.243 279.934,318.743 321.5,352C 296.693,375.54 267.36,384.207 233.5,378C 218.916,373.876 205.916,366.876 194.5,357C 173.167,340 151.833,323 130.5,306C 152.397,288.915 174.064,271.749 195.5,254.5 Z"/></g>
</svg>
